name C:\Users\u0150099\Documents\master_thesis\3dpredictsim\Results\debug\Fal_s1_mtjc5_sc_cspx10_oy2_MTc2_MTPm_k1_d01_MTJm_nl_MG_exp5_table_d01_PF_Natali2010_ls146_ig21.mot
datacolumns 128
datarows 4
range 1.63405741 1.66673856
endheader
time	pelvis_tilt	pelvis_list	pelvis_rotation	pelvis_tx	pelvis_ty	pelvis_tz	hip_flexion_l	hip_adduction_l	hip_rotation_l	hip_flexion_r	hip_adduction_r	hip_rotation_r	knee_angle_l	knee_angle_r	ankle_angle_l	ankle_angle_r	subtalar_angle_l	subtalar_angle_r	mtj_angle_l	mtj_angle_r	mtp_angle_l	mtp_angle_r	lumbar_extension	lumbar_bending	lumbar_rotation	arm_flex_l	arm_add_l	arm_rot_l	arm_flex_r	arm_add_r	arm_rot_r	elbow_flex_l	elbow_flex_r	pro_sup_l	pro_sup_r	glut_med1_l/activation	glut_med2_l/activation	glut_med3_l/activation	glut_min1_l/activation	glut_min2_l/activation	glut_min3_l/activation	semimem_l/activation	semiten_l/activation	bifemlh_l/activation	bifemsh_l/activation	sar_l/activation	add_long_l/activation	add_brev_l/activation	add_mag1_l/activation	add_mag2_l/activation	add_mag3_l/activation	tfl_l/activation	pect_l/activation	grac_l/activation	glut_max1_l/activation	glut_max2_l/activation	glut_max3_l/activation	iliacus_l/activation	psoas_l/activation	quad_fem_l/activation	gem_l/activation	peri_l/activation	rect_fem_l/activation	vas_med_l/activation	vas_int_l/activation	vas_lat_l/activation	med_gas_l/activation	lat_gas_l/activation	soleus_l/activation	tib_post_l/activation	flex_dig_l/activation	flex_hal_l/activation	tib_ant_l/activation	per_brev_l/activation	per_long_l/activation	per_tert_l/activation	ext_dig_l/activation	ext_hal_l/activation	ercspn_l/activation	intobl_l/activation	extobl_l/activation	glut_med1_r/activation	glut_med2_r/activation	glut_med3_r/activation	glut_min1_r/activation	glut_min2_r/activation	glut_min3_r/activation	semimem_r/activation	semiten_r/activation	bifemlh_r/activation	bifemsh_r/activation	sar_r/activation	add_long_r/activation	add_brev_r/activation	add_mag1_r/activation	add_mag2_r/activation	add_mag3_r/activation	tfl_r/activation	pect_r/activation	grac_r/activation	glut_max1_r/activation	glut_max2_r/activation	glut_max3_r/activation	iliacus_r/activation	psoas_r/activation	quad_fem_r/activation	gem_r/activation	peri_r/activation	rect_fem_r/activation	vas_med_r/activation	vas_int_r/activation	vas_lat_r/activation	med_gas_r/activation	lat_gas_r/activation	soleus_r/activation	tib_post_r/activation	flex_dig_r/activation	flex_hal_r/activation	tib_ant_r/activation	per_brev_r/activation	per_long_r/activation	per_tert_r/activation	ext_dig_r/activation	ext_hal_r/activation	ercspn_r/activation	intobl_r/activation	extobl_r/activation	
          1.63405741	         -2.91756285	          1.66347393	         -4.91835775	          2.17329636	          0.90609772	          0.00657687	         32.11736190	          1.77412098	         -6.51421937	        -12.36382416	          1.74781784	          3.33781815	        -18.26796590	        -18.68687967	         10.85020196	          5.48190617	         -0.52355855	         -0.96539029	          4.10386718	          0.10814668	         -4.94467137	         23.69048701	         -4.47499593	         -0.34039274	          0.86944856	         -2.69137632	        -13.46514923	         10.95799724	          5.12513907	        -13.67629833	         19.10849589	         20.15445720	         36.92093579	         86.51662706	         86.51662706	          0.05000405	          0.05001815	          0.05000399	          0.05906513	          0.05010379	          0.05001635	          0.30965417	          0.08247570	          0.15853919	          0.05823893	          0.07667960	          0.08980241	          0.11152601	          0.13129796	          0.05995727	          0.17413717	          0.05000339	          0.05005756	          0.10308563	          0.05001673	          0.05000802	          0.19084583	          0.09092875	          0.09576148	          0.22695249	          0.05900142	          0.05542665	          0.05000087	          0.05000487	          0.05000411	          0.05000255	          0.09893332	          0.05001481	          0.05305251	          0.05000031	          0.05000196	          0.05000165	          0.52156440	          0.15832432	          0.14664176	          0.06318295	          0.61637117	          0.39471947	          0.06494796	          0.08213875	          0.08563076	          0.26747188	          0.05000092	          0.05000029	          0.57939568	          0.17719464	          0.05907478	          0.05000757	          0.05000094	          0.05000078	          0.05000082	          0.05000749	          0.05037604	          0.05000478	          0.05000392	          0.05001343	          0.05005754	          0.42544229	          0.05002699	          0.05000159	          0.05000676	          0.05000427	          0.05000373	          0.24396856	          0.51160764	          0.05000032	          0.05000106	          0.05000068	          0.59754701	          0.19835034	          0.19722608	          0.16290267	          0.47539593	          0.66014749	          0.18732159	          0.42754848	          0.56916478	          0.49437567	          0.05000004	          0.06980460	          0.24674605	          0.05000400	          0.05000058	          0.06980528	          0.05000029	          0.05000063	          0.05000042	
          1.64495113	         -2.92607981	          1.74404416	         -5.32015244	          2.19043493	          0.90460283	          0.00627715	         32.05498178	          2.01605069	         -6.46055858	        -13.54983165	          1.20575194	          2.89370482	        -18.09231827	        -18.18459966	         10.65433640	          4.50513176	         -0.79300712	          0.36327592	          4.25115102	         -0.91193653	         -4.58153983	         25.78120115	         -4.32268945	         -0.45877631	          1.00628973	         -3.69382958	        -13.45264615	         10.23746160	          4.95816358	        -13.63993457	         19.26194265	         19.81257088	         38.31962651	         86.51662706	         86.51662706	          0.05000348	          0.05000125	          0.05905736	          0.05000110	          0.05000147	          0.05000604	          0.31414261	          0.06980552	          0.15853003	          0.06980458	          0.06491613	          0.08488913	          0.09441333	          0.13078787	          0.16032675	          0.21556132	          0.05000886	          0.05903600	          0.11720528	          0.05001186	          0.06048339	          0.23384195	          0.07695966	          0.08104738	          0.20849390	          0.05000708	          0.05000293	          0.05000055	          0.05000079	          0.05000075	          0.05000063	          0.09745301	          0.07891569	          0.05000014	          0.05698115	          0.05002800	          0.05000321	          0.52111797	          0.17758932	          0.15138465	          0.05907951	          0.61534696	          0.44162561	          0.06651888	          0.09042724	          0.07247275	          0.22637228	          0.05000077	          0.05000035	          0.49036503	          0.14996678	          0.05000169	          0.05000591	          0.05000081	          0.05000073	          0.05000077	          0.05002030	          0.09669448	          0.05003484	          0.05000358	          0.05001057	          0.05000501	          0.36007251	          0.06979219	          0.05000169	          0.05000816	          0.05000502	          0.05000406	          0.20648063	          0.60963290	          0.05000037	          0.05000107	          0.05000060	          0.50999753	          0.19126311	          0.19008164	          0.15853084	          0.45721704	          0.63761127	          0.18320966	          0.37633743	          0.62658868	          0.41848707	          0.05000013	          0.05907837	          0.20883047	          0.05000037	          0.05000019	          0.05907894	          0.05000371	          0.05000038	          0.05000037	
          1.65584484	         -2.92990139	          1.82220286	         -5.70914600	          2.20792039	          0.90305637	          0.00592519	         31.99039380	          2.26265131	         -6.37619618	        -14.62031284	          0.65280888	          2.43240579	        -18.65420872	        -17.88901167	         10.18710196	          3.36884919	         -1.06891419	          1.71456689	          4.31610301	         -2.00267229	         -4.14720938	         28.01864629	         -4.14956937	         -0.57259003	          1.14221135	         -4.75526269	        -13.44972470	          9.73806018	          4.70641216	        -13.60680964	         19.34714337	         19.55262397	         39.73015852	         86.51662706	         86.51662706	          0.05907654	          0.05907773	          0.05000085	          0.05907849	          0.05907826	          0.05011658	          0.26736834	          0.05907928	          0.13417008	          0.05907844	          0.05494212	          0.12994323	          0.17083344	          0.14873841	          0.16679354	          0.22135743	          0.05000137	          0.05002730	          0.09919648	          0.05000398	          0.05665998	          0.26504715	          0.08247790	          0.08247827	          0.44460332	          0.18997716	          0.10802806	          0.05000023	          0.05000077	          0.05000079	          0.05000052	          0.08247818	          0.06678950	          0.05387502	          0.05907823	          0.05907801	          0.05907808	          0.53237363	          0.22020532	          0.18410566	          0.05000127	          0.71791154	          0.46795801	          0.05629762	          0.08438694	          0.06177279	          0.19158755	          0.05000036	          0.05000016	          0.41501464	          0.12692280	          0.05000108	          0.05001458	          0.05000096	          0.05000073	          0.05000176	          0.05000543	          0.11310749	          0.24777010	          0.05000313	          0.05001267	          0.07539474	          0.30474492	          0.05908156	          0.05000118	          0.05000390	          0.05000258	          0.05000245	          0.17475243	          0.56189773	          0.05000016	          0.05000076	          0.05000091	          0.43618961	          0.18432535	          0.18488198	          0.15548794	          0.41798410	          0.57150990	          0.15676251	          0.31850869	          0.54956647	          0.35418261	          0.11133070	          0.05000062	          0.17674112	          0.05000043	          0.05000012	          0.05000094	          0.05000009	          0.05000012	          0.05000047	
          1.66673856	         -2.92981178	          1.89514390	         -6.07230082	          2.22567744	          0.90142406	          0.00552463	         31.89674714	          2.48320314	         -6.29415914	        -15.53857450	          0.10043474	          1.98191749	        -19.94245553	        -17.87918165	          9.40614097	          2.12844966	         -1.39052220	          3.07974892	          4.39725678	         -3.00705245	         -3.62417227	         30.03258502	         -3.96343799	         -0.67844085	          1.27111744	         -5.84505496	        -13.45661002	          9.45632768	          4.36668190	        -13.59207424	         19.38566212	         19.33755472	         41.19438651	         86.51662706	         86.51662706	          0.05000014	          0.05000038	          0.06783973	          0.05000059	          0.05000056	          0.05000058	          0.22628390	          0.05000111	          0.11355321	          0.05000039	          0.06979001	          0.10997756	          0.34800088	          0.30851376	          0.25742929	          0.27891886	          0.05907764	          0.06983288	          0.08395415	          0.05000452	          0.14900722	          0.33115857	          0.06980473	          0.06980485	          0.66791603	          0.16078552	          0.09143074	          0.06980501	          0.21439966	          0.20628259	          0.18229617	          0.06980463	          0.06980338	          0.06654506	          0.05000022	          0.05000013	          0.05000019	          0.66642162	          0.18636816	          0.15581562	          0.39233274	          0.71379698	          0.69179234	          0.05000011	          0.07141988	          0.05228077	          0.16214788	          0.05907823	          0.05907821	          0.35124262	          0.10741983	          0.05907825	          0.05001111	          0.05006192	          0.05907964	          0.05000043	          0.05000302	          0.29312795	          0.45213943	          0.35004716	          0.13770156	          0.17207783	          0.25791836	          0.05000636	          0.05907917	          0.05908234	          0.05908158	          0.05908680	          0.14789961	          0.53672278	          0.05907874	          0.05907852	          0.05907766	          0.36916373	          0.17534635	          0.17670990	          0.14981990	          0.35375579	          0.48369065	          0.13267400	          0.26956590	          0.46512067	          0.29975845	          0.26975113	          0.05063037	          0.17092805	          0.05000058	          0.05000031	          0.05000042	          0.06973180	          0.05907810	          0.05158427	
